<?xml version="1.0" standalone="no"?><!DOCTYPE svg PUBLIC "-//W3C//DTD SVG 1.1//EN" "http://www.w3.org/Graphics/SVG/1.1/DTD/svg11.dtd"><svg t="1646329160844" class="icon" viewBox="0 0 1024 1024" version="1.1" xmlns="http://www.w3.org/2000/svg" p-id="67652" xmlns:xlink="http://www.w3.org/1999/xlink" width="150" height="150"><defs><style type="text/css"></style></defs><path d="M514.286299 2.505864h3.565417V895.785974h-3.565417z" fill="#EDA639" p-id="67653"></path><path d="M69.430967 447.365225h893.276081v3.55736H69.430967z" fill="#EDA639" p-id="67654"></path><path d="M517.811429 452.578389m-430.932074 0a430.932074 430.932074 0 1 0 861.864148 0 430.932074 430.932074 0 1 0-861.864148 0Z" fill="#FFE770" p-id="67655"></path><path d="M520.027225 493.522274v160.145663" fill="#FFE770" p-id="67656"></path><path d="M520.027225 675.024184a21.352218 21.352218 0 0 1-21.352218-21.356247v-160.145663a21.352218 21.352218 0 0 1 42.708465 0v160.145663a21.352218 21.352218 0 0 1-21.356247 21.356247z" fill="#6E6E96" p-id="67657"></path><path d="M300.917211 313.051716l62.279988-62.279988 62.279988 62.279988" fill="#FFE770" p-id="67658"></path><path d="M425.477187 334.403934a21.299845 21.299845 0 0 1-15.099644-6.252574L363.197199 280.971016 316.016855 328.15136a21.352218 21.352218 0 1 1-30.199288-30.199288l62.279988-62.279988a21.352218 21.352218 0 0 1 30.199288 0l62.279988 62.279988a21.352218 21.352218 0 0 1-15.099644 36.451862z" fill="#6E6E96" p-id="67659"></path><path d="M610.536457 313.051716l62.284017-62.279988 62.279988 62.279988" fill="#FFE770" p-id="67660"></path><path d="M735.100462 334.403934a21.299845 21.299845 0 0 1-15.099644-6.252574l-47.180344-47.180344-47.184373 47.180344a21.356247 21.356247 0 0 1-30.195259-30.199288l62.279988-62.279988a21.352218 21.352218 0 0 1 30.195259 0l62.279989 62.279988a21.352218 21.352218 0 0 1-15.095616 36.451862z" fill="#6E6E96" p-id="67661"></path><path d="M519.624353 45.947556c-3.831313 0-7.65054 0.068488-11.449623 0.173235 203.095851 5.785242 365.960901 172.231825 365.960901 376.72967 0 208.159953-168.746981 376.898877-376.906934 376.898877-208.155924 0-376.902905-168.738924-376.902906-376.898877a377.615989 377.615989 0 0 1 12.061989-94.924709 406.368966 406.368966 0 0 0-19.523179 124.777527c0 224.645477 182.114276 406.755723 406.759752 406.755724s406.755723-182.110247 406.755724-406.755724c0-224.645477-182.110247-406.755723-406.755724-406.755723z" fill="#FF9900" opacity=".24" p-id="67662"></path><path d="M517.811429 901.305321c-103.779837 0-204.98935-36.262512-284.979593-102.095831-78.906517-64.947001-133.733373-155.508606-154.380564-255.005914a451.740415 451.740415 0 0 1-9.366775-91.629216C69.084497 205.14647 270.383539 3.847428 517.811429 3.847428c247.42789 0 448.726932 201.299042 448.726932 448.726932 0 247.42789-201.299042 448.730961-448.726932 448.730961z m0-861.864149c-227.803993 0-413.137216 185.333223-413.137216 413.137217 0 28.43068 2.900679 56.821072 8.621461 84.397663 19.003474 91.576843 69.487369 174.951211 142.153398 234.757565 73.636951 60.604041 166.813196 93.981989 262.366386 93.981988 227.808022 0 413.137216-185.333223 413.137216-413.137216S745.619451 39.441172 517.811429 39.441172z" fill="#6E6E96" p-id="67663"></path><path d="M809.635818 752.069432m-135.542268 0a135.542268 135.542268 0 1 0 271.084536 0 135.542268 135.542268 0 1 0-271.084536 0Z" fill="#FFE770" p-id="67664"></path><path d="M809.635818 905.406558c-84.546726 0-153.337126-68.786372-153.337126-153.341154 0-84.546726 68.786372-153.337126 153.337126-153.337126s153.341155 68.786372 153.341155 153.337126c-0.004029 84.554783-68.7904 153.341155-153.341155 153.341154z m0-271.084536c-64.926857 0-117.74741 52.816524-117.74741 117.74741s52.816524 117.751439 117.74741 117.751439 117.751439-52.816524 117.751439-117.751439c-0.004029-64.930886-52.820553-117.74741-117.751439-117.74741z" fill="#6E6E96" p-id="67665"></path><path d="M218.864263 752.069432m-135.542268 0a135.542268 135.542268 0 1 0 271.084536 0 135.542268 135.542268 0 1 0-271.084536 0Z" fill="#FFE770" p-id="67666"></path><path d="M218.864263 905.406558c-84.550754 0-153.337126-68.786372-153.337126-153.341154 0-84.546726 68.786372-153.337126 153.337126-153.337126s153.337126 68.786372 153.337126 153.337126c0 84.554783-68.786372 153.341155-153.337126 153.341154z m0-271.084536c-64.926857 0-117.74741 52.816524-117.74741 117.74741s52.820553 117.751439 117.74741 117.751439 117.751439-52.816524 117.751439-117.751439c-0.004029-64.930886-52.824581-117.74741-117.751439-117.74741z" fill="#6E6E96" p-id="67667"></path><path d="M305.248085 455.213172a61.824743 28.845638 0 1 0 123.649486 0 61.824743 28.845638 0 1 0-123.649486 0Z" fill="#FF0000" opacity=".18" p-id="67668"></path><path d="M615.403151 455.213172a61.820714 28.845638 0 1 0 123.641429 0 61.820714 28.845638 0 1 0-123.641429 0Z" fill="#FF0000" opacity=".18" p-id="67669"></path><path d="M410.079418 993.43007h193.378577a16.114881 16.114881 0 0 0 0-32.229763h-193.378577a16.114881 16.114881 0 0 0 0 32.229763z" fill="#6E6E96" opacity=".29" p-id="67670"></path><path d="M675.435114 993.43007h56.402085a16.114881 16.114881 0 0 0 0-32.229763h-56.402085a16.114881 16.114881 0 0 0 0 32.229763z" fill="#6E6E96" opacity=".17" p-id="67671"></path><path d="M332.993882 961.200307h-44.315924a16.114881 16.114881 0 0 0 0 32.229763h44.315924a16.114881 16.114881 0 0 0 0-32.229763z" fill="#6E6E96" opacity=".17" p-id="67672"></path></svg>