<?xml version="1.0" standalone="no"?><!DOCTYPE svg PUBLIC "-//W3C//DTD SVG 1.1//EN" "http://www.w3.org/Graphics/SVG/1.1/DTD/svg11.dtd"><svg t="1646328931776" class="icon" viewBox="0 0 1028 1024" version="1.1" xmlns="http://www.w3.org/2000/svg" p-id="3196" xmlns:xlink="http://www.w3.org/1999/xlink" width="150.5859375" height="150"><defs><style type="text/css"></style></defs><path d="M491.230389 512m-470.460778 0a470.460777 470.460777 0 1 0 940.921555 0 470.460777 470.460777 0 1 0-940.921555 0Z" fill="#70C4FF" p-id="3197"></path><path d="M484.999505 57.145509s-47.072247 265.851027 55.3884 285.237382 146.77469-8.307845 199.38827 44.309889 170.842516 34.394477 174.464736-19.386355c0 0-72.004089-268.621693-429.241406-310.160916zM193.792937 864.796774s108.666607 16.528457 208.477052-25.106306c105.704861-44.093885 201.465231-149.807054 147.634552-275.558743C465.239297 366.388408 383.373796 471.017403 412.102323 315.785327c28.724373-155.232076-61.527897-217.100595-124.48059-217.100595s-337.672343 410.465677-93.828796 766.112042z" fill="#A3D9FF" opacity=".26" p-id="3198"></path><path d="M170.971288 856.285387s94.27742 15.63121 180.878392-23.739665c91.71445-41.692918 174.79705-141.665366 128.090348-260.546468-73.457962-186.972196-144.485879-88.038229-119.562346-234.81292s-53.390363-205.274378-108.001979-205.274378c-54.619924 0-292.971985 388.105114-81.404415 724.373431z" fill="#A3D9FF" opacity=".26" p-id="3199"></path><path d="M184.812157 147.364547c149.416585 22.929651 95.585906 150.558913 137.710832 299.792726 27.336963 96.815467 68.614488 82.667208 105.580242 154.471908 56.464266 74.662599-216.003959 324.005939-362.093252 115.703352-144.801577-357.540553 118.802178-569.967986 118.802178-569.967986z" fill="#9EE3C3" p-id="3200"></path><path d="M210.005695 815.165711c-62.587147 0-117.086608-30.535483-157.595657-88.299927l-1.088328-1.549413-0.710321-1.752955c-77.100952-190.365951-39.524571-340.318392 5.574564-432.589467 48.862588-99.972448 115.395961-154.284982 118.204013-156.54887l5.703335-4.594238 7.24444 1.113251c116.463519 17.870174 123.40057 95.747909 131.425948 185.925408 3.402062 38.199469 7.256902 81.499955 19.756054 125.772459 14.555344 51.546022 32.479518 68.020478 53.240822 87.099443 15.84306 14.559498 33.779696 31.042261 50.511695 63.106388 14.061027 19.768516 13.288397 47.711951-2.23481 78.912061-34.311398 68.971726-132.015804 143.405859-230.031755 143.40586z m-129.307447-105.850248c34.340476 48.189653 77.836196 72.61887 129.307447 72.618869 90.106882 0 174.211347-72.585638 200.27721-124.97906 9.790795-19.685438 11.456518-36.201433 4.569314-45.30683l-0.864015-1.142329-0.65632-1.275254c-14.20226-27.586198-28.707757-40.916135-44.060654-55.022855-22.427026-20.615916-45.622529-41.925538-62.736688-102.539571-13.342398-47.263328-17.342626-92.204613-20.87346-131.857956-7.668141-86.110809-12.382842-139.056703-95.884988-154.750221-16.445378 14.85858-66.662145 64.065944-104.363144 141.78583-60.39803 124.517975-61.980675 259.927534-4.714702 402.469377z" fill="#6E6E96" p-id="3201"></path><path d="M531.245122 43.250639s-73.703043 251.225066 88.258387 251.225066c164.578401 0 195.433736 148.984577 298.359623 19.049888-109.759089-264.405462-386.61801-270.274954-386.61801-270.274954z" fill="#9EE3C3" p-id="3202"></path><path d="M838.290596 383.332257h-0.02077c-26.531102-0.004154-49.963377-13.155472-77.100951-28.383751-36.633441-20.557761-78.156048-43.861265-141.665366-43.861266-40.600436 0-71.792239-14.164875-92.707238-42.095848-56.181799-75.032298-13.342398-224.112416-11.493903-230.422224l3.580681-12.204223 12.71931 0.270005c2.953439 0.062309 73.325036 1.939882 158.181361 37.256529 78.558978 32.695522 184.558767 101.438782 243.432308 243.257843l3.746838 9.026473-6.06888 7.659833c-32.595828 41.148754-61.158198 59.496629-92.60339 59.496629z m-294.425858-322.55622c-3.41037 14.227184-8.573696 38.83502-11.149128 66.529219-5.088555 54.82762 2.068653 96.944238 20.698995 121.80131 14.501343 19.34897 36.1142 28.75345 66.08475 28.75345 72.195169 0 119.732656 26.676489 157.932126 48.110728 24.022133 13.479478 42.99725 24.130135 60.842499 24.134289h0.012462c11.822063 0 30.6601-4.270232 60.335721-39.304413-44.135424-100.321377-118.266322-172.877938-220.465271-215.738108-58.719846-24.628605-110.913879-32.076588-134.292154-34.286475z" fill="#6E6E96" p-id="3203"></path><path d="M487.076466 37.385301C227.248627 37.385301 20.769611 248.018238 20.769611 507.846078s206.479015 470.460777 466.306855 470.460777 470.460777-210.632938 470.460777-470.460777S746.904306 37.385301 487.076466 37.385301z m339.840691 523.921757c-16.607381 57.984601-116.833218 40.068734-156.64441 83.186447-32.392286 35.084028-1.050942 134.304616-44.538355 155.290231-50.05061 24.142596-106.178408 37.65946-165.46734 37.65946-65.665204 0 80.062698-119.778349 26.119863-149.001193-19.191121-10.401421-29.040071 46.889475-38.079006-80.357626-3.318984-46.727472-70.550216-68.394331-114.573484-175.374446-11.057741-26.871723-31.715197-216.074576-39.815345-205.26607-49.847068 66.462757-8.307845 274.76119 38.768556 383.544107 29.754545 68.755722-171.735609 188.259912-171.735609 81.429339 0-211.584186-95.498674-86.966517-82.027503-236.316639C97.84564 246.356669 249.659038 74.770601 460.267052 74.770601c88.848244 0 179.1919 25.550776 243.702313 76.681406 30.506405 24.163366 55.234705 54.063299 71.302076 89.666566 28.196825 62.487453-197.224077 22.327332-176.728624 32.583367 41.796766 20.919153 254.959442 98.663962 232.411952 92.536927-294.151699-79.933927-11.23636 67.974784 10.642349 89.870109 36.500515 36.492207-5.113478 71.783931-14.679961 105.198082z" fill="#6E6E96" opacity=".2" p-id="3204"></path><path d="M798.005858 772.185077l106.165946 106.141022a18.327105 18.327105 0 0 0 25.93709 0 18.318797 18.318797 0 0 0 0-25.949552l-106.14933-106.145177a18.356183 18.356183 0 0 0-25.953706 25.953707z" fill="#6E6E96" p-id="3205"></path><path d="M673.043413 619.935517m-196.505448 0a196.505448 196.505448 0 1 0 393.010896 0 196.505448 196.505448 0 1 0-393.010896 0Z" fill="#FFFFFF" p-id="3206"></path><path d="M673.043413 441.777944c98.240262 0 178.174189 79.921465 178.174189 178.170035 0 98.223647-79.925619 178.145111-178.174189 178.145111-98.2278 0-178.153419-79.913157-178.153419-178.145111 0-98.24857 79.917311-178.170035 178.153419-178.170035z m-214.857476 178.161727c0 118.469864 96.383459 214.861631 214.857476 214.86163 118.474018 0 214.874092-96.391767 214.874093-214.86163 0-118.474018-96.391767-214.874092-214.874093-214.874093-118.478172 0.004154-214.857477 96.387613-214.857476 214.874093z" fill="#6E6E96" p-id="3207"></path><path d="M673.043413 619.939671m-137.262208 0a137.262208 137.262208 0 1 0 274.524417 0 137.262208 137.262208 0 1 0-274.524417 0Z" fill="#C7E9FF" p-id="3208"></path><path d="M791.953593 619.939671c0 65.565509-53.340516 118.91018-118.91018 118.910179-65.561356 0-118.91018-53.34467-118.910179-118.910179 0-65.573817 53.348824-118.914333 118.910179-118.914334 65.569663 0 118.91018 53.340516 118.91018 118.914334z m-118.91018-155.618391c-85.803419 0-155.614237 69.814972-155.614237 155.626699 0 85.799265 69.810818 155.610083 155.614237 155.610083 85.815881 0 155.626699-69.810818 155.626699-155.610083-0.004154-85.824188-69.810818-155.626699-155.626699-155.626699z" fill="#6E6E96" p-id="3209"></path><path d="M563.97803 652.253032c0-68.10771 55.209781-123.313337 123.305029-123.313337 45.240368 0 84.764938 24.371062 106.207485 60.688805-11.747292-55.849485-61.282816-97.779177-120.638211-97.779177-68.10771 0-123.309183 55.201473-123.309183 123.313337a122.769173 122.769173 0 0 0 17.076774 62.603763 124.497205 124.497205 0 0 1-2.641894-25.513391z" fill="#6E6E96" opacity=".15" p-id="3210"></path><path d="M629.181702 577.787638a25.592315 44.019115 46.701 1 0 35.102709 37.251393 25.592315 44.019115 46.701 1 0-35.102709-37.251393Z" fill="#FFFFFF" opacity=".5" p-id="3211"></path><path d="M716.394647 660.858588a16.167066 27.802202 46.709 1 0 22.171644 23.535383 16.167066 27.802202 46.709 1 0-22.171644-23.535383Z" fill="#FFFFFF" opacity=".5" p-id="3212"></path><path d="M957.271392 919.719935c-8.922625 8.914317-23.523662 8.914317-32.450441 0l-86.505431-86.517894c-8.914317-8.918471-8.914317-23.5112 0-32.442133l17.30524-17.296932c8.914317-8.918471 23.5112-8.918471 32.437979 0l86.517894 86.513739c8.918471 8.922625 8.918471 23.519508-0.012462 32.442133l-17.292779 17.301087z" fill="#A8C5E0" p-id="3213"></path><path d="M944.294539 906.738928a4.660701 4.660701 0 0 1-6.49258 0.004154l-86.522048-86.517894a4.673163 4.673163 0 0 1 0-6.492581l17.30524-17.292778a4.664855 4.664855 0 0 1 6.492581 0l86.517893 86.51374c1.129867 1.146483 1.304332 2.521431 1.304332 3.235905 0 0.722782-0.166157 2.101885-1.312639 3.248367 0.008308 0.004154-17.301086 17.30524-17.292779 17.301087z m43.258947 8.660928a41.044906 41.044906 0 0 0 12.071298-29.19792 40.990905 40.990905 0 0 0-12.071298-29.202074l-86.517894-86.509586c-16.092295-16.100603-42.291083-16.100603-58.387531 0l-17.305241 17.296933c-16.096449 16.100603-16.096449 42.295237 0 58.399993l86.51374 86.51374c16.092295 16.100603 42.295237 16.100603 58.408301 0.008308-0.004154-0.008308 17.288625-17.313548 17.288625-17.309394z" fill="#6E6E96" p-id="3214"></path><path d="M487.076466 994.922544C218.500467 994.922544 0 776.417924 0 507.846078 0 239.270078 218.500467 20.769611 487.076466 20.769611c268.571846 0 487.076466 218.500467 487.076466 487.076467 0 73.931509-16.146296 144.946964-47.98611 211.069099a16.615689 16.615689 0 1 1-29.937318-14.418264c29.654851-61.590206 44.69205-127.75388 44.69205-196.650835C940.921554 257.593029 737.325361 54.00099 487.076466 54.00099 236.823418 54.00099 33.231378 257.593029 33.231378 507.846078c0 250.248895 203.592039 453.845088 453.845088 453.845088 105.177312 0 207.700269-36.799598 288.680984-103.6279a16.615689 16.615689 0 1 1 21.151772 25.629701c-86.920824 71.725776-196.954072 111.229577-309.832756 111.229577z" fill="#6E6E96" p-id="3215"></path></svg>