<?xml version="1.0" standalone="no"?><!DOCTYPE svg PUBLIC "-//W3C//DTD SVG 1.1//EN" "http://www.w3.org/Graphics/SVG/1.1/DTD/svg11.dtd"><svg t="1646329063571" class="icon" viewBox="0 0 1238 1024" version="1.1" xmlns="http://www.w3.org/2000/svg" p-id="25036" xmlns:xlink="http://www.w3.org/1999/xlink" width="181.34765625" height="150"><defs><style type="text/css"></style></defs><path d="M1205.76 748.209633c-179.294041 274.097633-569.976163 335.819755-872.568163 137.874285C30.594612 688.122776-69.339429 305.439347 109.97551 31.346939l1095.78449 716.862694z" fill="#9ADBBB" p-id="25037"></path><path d="M1011.691102 633.417143c-50.332735 79.673469-134.201469 135.753143-236.141714 157.920653-125.278041 27.235265-262.253714 0.256-375.792327-74.025796C187.893551 578.716735 108.246204 304.410122 225.828571 118.31902a26.127673 26.127673 0 0 1-36.383347 7.904653l830.035592 543.012572a26.132898 26.132898 0 0 1-7.789714-35.819102zM181.660735 90.409796c-63.205878 100.033306-79.380898 229.517061-44.382041 355.254857 35.636245 128.015673 118.695184 240.018286 233.874286 315.371102 125.173551 81.888653 276.610612 111.548082 415.488 81.350531 115.732898-25.150694 211.346286-89.458939 269.217959-181.070368a26.122449 26.122449 0 0 0-7.78449-35.808653L218.044082 82.505143a26.143347 26.143347 0 0 0-19.847837-3.667592 26.148571 26.148571 0 0 0-16.53551 11.572245z" fill="#FFFFFF" opacity=".41" p-id="25038"></path><path d="M1075.576163 663.04c-123.18302 194.998857-419.113796 241.752816-648.322612 91.804735-229.214041-149.948082-304.911673-439.823673-181.71298-634.806857L1075.576163 663.04z" fill="#FF7094" p-id="25039"></path><path d="M427.253551 639.905959c-136.327837-89.182041-218.336653-227.876571-236.507429-366.649469-23.217633 172.611918 62.187102 367.548082 236.507429 481.588245 229.208816 149.948082 525.139592 103.194122 648.322612-91.804735l-62.537143-40.907755c-143.668245 130.183837-389.214041 146.379755-585.785469 17.773714z" fill="#E66585" p-id="25040"></path><path d="M359.878531 638.453551m-44.047674 0a44.047673 44.047673 0 1 0 88.095347 0 44.047673 44.047673 0 1 0-88.095347 0Z" fill="#6E6E96" p-id="25041"></path><path d="M650.522122 575.117061m-32.30302 0a32.30302 32.30302 0 1 0 64.606041 0 32.30302 32.30302 0 1 0-64.606041 0Z" fill="#6E6E96" p-id="25042"></path><path d="M898.361469 738.727184m-46.236734 0a46.236735 46.236735 0 1 0 92.473469 0 46.236735 46.236735 0 1 0-92.473469 0Z" fill="#6E6E96" p-id="25043"></path><path d="M282.096327 347.43902m-29.361633 0a29.361633 29.361633 0 1 0 58.723265 0 29.361633 29.361633 0 1 0-58.723265 0Z" fill="#6E6E96" p-id="25044"></path><path d="M333.191837 795.172571C147.111184 673.436735 37.710367 481.849469 22.716082 288.611265 5.22449 510.845388 117.880163 745.226449 333.191837 886.083918c302.592 197.950694 693.263673 136.223347 872.568163-137.874285l-46.111347-30.166204c-194.142041 221.455673-547.678041 259.495184-826.456816 77.129142z" fill="#6E6E96" opacity=".15" p-id="25045"></path><path d="M1188.268408 736.768c-77.662041 118.726531-200.672653 200.886857-346.373224 231.350857-166.206694 34.748082-347.454694-1.525551-497.261715-99.531755-149.801796-98.00098-255.649959-249.532082-290.392816-415.733551-30.458776-145.705796-4.45649-291.338449 73.221225-410.070204L98.533878 48.828082 1194.318367 765.701224l-6.049959-28.933224zM92.489143 19.905306C8.698776 147.978449-19.414204 304.775837 13.327673 461.406041c36.994612 176.974367 149.409959 338.139429 308.422531 442.164245 159.017796 104.024816 351.723102 142.466612 528.702694 105.461551 156.62498-32.747102 289.018776-121.312653 372.793469-249.380572l11.436409-17.486367-17.491592-11.441633L121.417143 13.860571 103.925551 2.418939 92.489143 19.905306z" fill="#6E6E96" p-id="25046"></path><path d="M1057.906939 651.875265c-51.085061 80.869878-136.129306 137.780245-239.454041 160.240327-126.641633 27.527837-265.059265 0.282122-379.757714-74.762449-105.628735-69.099102-181.744327-171.603592-214.319021-288.632163-31.446204-112.963918-17.293061-228.696816 38.833633-317.523592l-29.105633 6.321632 830.035592 543.007347-6.232816-28.651102zM227.876571 108.873143c-62.422204 98.789878-78.372571 226.742857-43.765551 351.059592 35.296653 126.803592 117.582367 237.745633 231.700898 312.403592 124.00849 81.125878 274.003592 110.508408 411.517388 80.624326 114.364082-24.858122 208.796735-88.340898 265.910857-178.755918l10.987102-17.392327-17.214694-11.258775L256.982204 102.55151l-17.76849-11.62449-11.337143 17.946123z" fill="#6E6E96" p-id="25047"></path></svg>